
The Girl with the Dragon Tattoo (2011)

Director: David Fincher

Release Date: 12 January 2012 (Germany)

Genre: Crime | Drama | Mystery | Thriller

Language: English

Run Time: 158 min

Storyline: This English-language adaptation
of the Swedish novel by Stieg Larsson
follows a disgraced journalist, Mikael
Blomkvist (Daniel Craig), as he investigates
the disappearance of a wealthy patriarch's niece from


General
Complete name                            : D:Torrent Films\The Girl With The Dragon Tatto_2011_DvDSCR_Riskee.avi
Format                                   : AVI
Format/Info                              : Audio Video Interleave
File size                                : 1.07 GiB
Duration                                 : 2h 38mn
Overall bit rate                         : 970 Kbps
Writing application                      : VirtualDubMod 1.5.4.1 (build 2178/release)
Writing library                          : VirtualDubMod build 2178/release

Video
ID                                       : 0
Format                                   : MPEG-4 Visual
Format profile                           : Advanced Simple@L5
Format settings, BVOP                    : 1
Format settings, QPel                    : No
Format settings, GMC                     : No warppoints
Format settings, Matrix                  : Custom
Codec ID                                 : XVID
Codec ID/Hint                            : XviD
Duration                                 : 2h 38mn
Bit rate                                 : 516 Kbps
Width                                    : 720 pixels
Height                                   : 304 pixels
Display aspect ratio                     : 2.35:1
Frame rate                               : 23.976 fps
Color space                              : YUV
Chroma subsampling                       : 4:2:0
Bit depth                                : 8 bits
Scan type                                : Progressive
Compression mode                         : Lossy
Bits/(Pixel*Frame)                       : 0.098
Stream size                              : 583 MiB (53%)
Writing library                          : XviD 1.2.1 (UTC 2008-12-04)

Audio
ID                                       : 1
Format                                   : AC-3
Format/Info                              : Audio Coding 3
Mode extension                           : CM (complete main)
Codec ID                                 : 2000
Duration                                 : 2h 38mn
Bit rate mode                            : Constant
Bit rate                                 : 448 Kbps
Channel(s)                               : 6 channels
Channel positions                        : Front: L C R, Side: L R, LFE
Sampling rate                            : 48.0 KHz
Bit depth                                : 16 bits
Compression mode                         : Lossy
Stream size                              : 507 MiB (46%)
Alignment                                : Split accross interleaves
Interleave, duration                     : 96 ms (2.30 video frames)
Interleave, preload duration             : 96 ms
Language                                 : English
 
http://i.imgur.com/HH6dc.png